<?xml version="1.0" standalone="no"?>
<!DOCTYPE svg PUBLIC "-//W3C//DTD SVG 20010904//EN"
 "http://www.w3.org/TR/2001/REC-SVG-20010904/DTD/svg10.dtd">
<svg version="1.0" xmlns="http://www.w3.org/2000/svg"
 width="1052.000000pt" height="660.000000pt" viewBox="0 0 1052.000000 660.000000"
 preserveAspectRatio="xMidYMid meet">
<metadata>
Created by potrace 1.13, written by Peter Selinger 2001-2015
</metadata>
<g transform="translate(0.000000,660.000000) scale(0.100000,-0.100000)"
fill="#000000" stroke="none">
<path d="M1010 6553 c-8 -3 -31 -21 -51 -40 -35 -33 -38 -34 -61 -19 -13 8
-52 23 -88 32 -167 42 -343 -43 -422 -204 -30 -62 -33 -74 -33 -167 l-1 -100
-42 -41 c-38 -37 -42 -47 -42 -89 0 -43 4 -52 43 -91 43 -43 43 -44 29 -76
-43 -100 -64 -222 -69 -398 -7 -224 15 -392 67 -514 l16 -40 -43 -41 c-39 -38
-43 -46 -43 -90 0 -43 4 -52 45 -93 l46 -46 -20 -50 c-58 -147 -75 -276 -68
-505 6 -184 22 -280 67 -388 l22 -51 -46 -44 c-42 -41 -46 -49 -46 -93 0 -43
4 -52 43 -90 l42 -43 -22 -54 c-45 -113 -58 -208 -58 -433 0 -227 11 -304 62
-432 l25 -62 -46 -44 c-42 -40 -46 -48 -46 -92 0 -44 4 -52 43 -89 l42 -41
-23 -65 c-48 -135 -57 -201 -57 -430 0 -229 9 -295 57 -430 l23 -65 -42 -41
c-39 -37 -43 -45 -43 -88 0 -43 4 -53 42 -90 l42 -41 0 -95 c1 -84 4 -102 30
-154 88 -179 291 -257 479 -186 l51 20 38 -40 c62 -64 138 -64 192 1 l24 28
49 -19 c101 -38 219 -54 408 -54 195 -1 282 10 407 51 l77 25 25 -29 c54 -64
132 -68 188 -9 l32 34 54 -19 c115 -39 220 -53 407 -53 189 0 296 14 418 55
l59 20 39 -35 c65 -59 113 -60 177 -2 36 33 38 34 71 20 90 -38 232 -57 421
-58 193 0 295 13 413 53 l55 19 33 -34 c57 -59 131 -55 185 9 l25 30 63 -21
c136 -45 222 -57 416 -56 193 0 297 13 413 53 l56 19 16 -25 c22 -33 79 -56
122 -48 19 3 49 21 69 41 l35 35 62 -20 c212 -71 527 -79 762 -20 43 11 87 25
98 30 14 8 22 5 38 -16 53 -66 128 -70 189 -10 l37 36 74 -24 c123 -40 211
-52 399 -51 183 0 277 13 404 55 l59 20 37 -36 c61 -60 136 -56 189 10 16 21
24 24 38 16 11 -5 55 -19 98 -30 235 -59 550 -51 763 20 l62 21 29 -31 c58
-62 127 -64 185 -6 33 33 34 33 73 20 187 -64 395 20 481 195 23 47 27 69 29
149 1 80 4 96 20 104 35 19 73 60 83 93 14 43 -6 92 -53 130 -35 27 -35 28
-20 57 28 55 62 216 73 346 17 197 -9 426 -64 561 l-23 58 35 27 c75 60 75
135 0 199 l-40 35 26 64 c96 239 94 662 -2 881 l-20 43 35 28 c76 60 76 135 1
199 l-40 35 26 64 c96 239 96 635 0 874 l-26 64 40 35 c75 64 75 139 0 199
l-35 27 23 58 c55 135 81 364 64 561 -11 128 -45 292 -73 344 -13 27 -13 29
24 62 79 72 70 155 -25 214 -29 18 -29 19 -30 116 -1 84 -5 106 -28 155 -52
112 -157 192 -282 218 -65 13 -125 8 -198 -16 -46 -15 -48 -15 -80 9 -66 50
-118 46 -173 -10 l-35 -36 -63 21 c-129 42 -233 56 -417 56 -183 0 -298 -16
-408 -54 l-54 -19 -24 29 c-28 33 -84 55 -120 46 -13 -4 -42 -22 -64 -42 l-39
-35 -78 24 c-125 39 -216 51 -388 51 -172 0 -263 -12 -388 -51 l-78 -24 -39
35 c-22 20 -51 38 -64 42 -36 9 -92 -13 -120 -46 l-24 -30 -58 20 c-115 40
-220 54 -404 54 -185 0 -290 -14 -417 -56 l-64 -21 -32 33 c-60 62 -123 64
-182 5 -33 -34 -35 -34 -68 -20 -19 8 -81 24 -138 36 -148 32 -427 32 -576 1
-56 -12 -121 -31 -146 -41 l-44 -19 -26 34 c-53 66 -131 67 -192 4 l-27 -28
-57 19 c-107 37 -227 53 -406 53 -179 0 -299 -16 -406 -53 l-57 -19 -27 28
c-61 63 -139 62 -191 -4 l-26 -33 -63 23 c-115 42 -227 58 -410 58 -180 1
-262 -9 -393 -47 l-81 -24 -32 34 c-18 18 -47 36 -65 39 -40 7 -97 -18 -124
-57 l-20 -28 -43 19 c-96 42 -240 63 -437 63 -189 0 -335 -20 -428 -58 -33
-14 -35 -14 -62 15 -40 42 -88 58 -130 43z m8190 -3138 l0 -2235 -4010 0
-4010 0 0 2235 0 2235 4010 0 4010 0 0 -2235z"/>
<path d="M3202 4899 c-124 -330 -706 -1858 -711 -1867 -5 -8 -148 348 -353
875 l-346 888 -215 3 -215 2 480 -1202 c264 -662 516 -1294 561 -1406 44 -111
84 -199 88 -195 4 5 163 422 354 928 191 506 351 924 355 928 4 5 12 -4 18
-20 227 -632 665 -1830 670 -1835 5 -4 1125 2644 1178 2785 6 16 -8 17 -207
17 l-214 0 -364 -883 c-200 -485 -367 -885 -370 -889 -4 -4 -161 419 -350 940
-189 521 -346 949 -347 951 -2 2 -7 -7 -12 -20z"/>
<path d="M7943 4849 c-316 -29 -587 -236 -667 -509 -39 -130 -28 -314 25 -437
47 -110 152 -226 279 -308 87 -57 156 -91 335 -165 203 -84 315 -144 385 -208
203 -183 170 -537 -65 -687 -76 -49 -142 -66 -244 -66 -142 0 -232 33 -316
118 -61 61 -101 146 -126 270 -11 54 -22 99 -23 100 -4 5 -380 -80 -389 -87
-4 -3 6 -59 22 -122 81 -322 275 -536 561 -618 96 -28 307 -38 418 -20 314 50
575 279 663 582 33 113 38 325 10 440 -46 195 -152 336 -346 461 -98 63 -150
87 -373 178 -283 116 -351 159 -407 260 -26 46 -30 64 -29 124 2 146 87 252
245 305 54 19 80 21 170 18 90 -4 115 -9 162 -32 60 -29 150 -118 187 -185
l22 -39 138 82 c75 44 147 88 159 96 l22 15 -39 60 c-49 77 -139 174 -214 231
-145 112 -346 163 -565 143z"/>
<path d="M5270 4615 l0 -185 310 0 310 0 0 -1145 0 -1145 195 0 195 0 0 1145
0 1145 305 0 305 0 0 185 0 185 -810 0 -810 0 0 -185z"/>
</g>
</svg>
